<?xml version="1.0" encoding="UTF-8" standalone="no"?>
<!-- Created with Inkscape (http://www.inkscape.org/) -->

<svg
   xmlns:dc="http://purl.org/dc/elements/1.1/"
   xmlns:cc="http://creativecommons.org/ns#"
   xmlns:rdf="http://www.w3.org/1999/02/22-rdf-syntax-ns#"
   xmlns:svg="http://www.w3.org/2000/svg"
   xmlns="http://www.w3.org/2000/svg"
   xmlns:sodipodi="http://sodipodi.sourceforge.net/DTD/sodipodi-0.dtd"
   xmlns:inkscape="http://www.inkscape.org/namespaces/inkscape"
   width="24"
   height="24"
   viewBox="0 0 6.3499999 6.3500002"
   version="1.1"
   id="svg37"
   inkscape:version="0.92pre2 r15141 custom"
   sodipodi:docname="favicon.svg"
   inkscape:export-filename="./faviconpng.png"
   inkscape:export-xdpi="96"
   inkscape:export-ydpi="96">
  <defs
     id="defs31">
    <filter
       inkscape:collect="always"
       style="color-interpolation-filters:sRGB"
       id="filter892"
       x="-0.043636965"
       width="1.0872739"
       y="-0.095997091"
       height="1.1919942">
      <feGaussianBlur
         inkscape:collect="always"
         stdDeviation="0.10583479"
         id="feGaussianBlur894" />
    </filter>
    <filter
       inkscape:collect="always"
       style="color-interpolation-filters:sRGB"
       id="filter914"
       x="-0.026182179"
       width="1.0523644"
       y="-0.057598255"
       height="1.1151965">
      <feGaussianBlur
         inkscape:collect="always"
         stdDeviation="0.063500876"
         id="feGaussianBlur916" />
    </filter>
  </defs>
  <sodipodi:namedview
     id="base"
     pagecolor="#ffffff"
     bordercolor="#666666"
     borderopacity="1.0"
     inkscape:pageopacity="0.0"
     inkscape:pageshadow="2"
     inkscape:zoom="22.4"
     inkscape:cx="8.4966192"
     inkscape:cy="9.1365539"
     inkscape:document-units="mm"
     inkscape:current-layer="layer1"
     showgrid="true"
     units="px"
     inkscape:window-width="1920"
     inkscape:window-height="1015"
     inkscape:window-x="0"
     inkscape:window-y="0"
     inkscape:window-maximized="1">
    <inkscape:grid
       type="xygrid"
       id="grid850" />
  </sodipodi:namedview>
  <metadata
     id="metadata34">
    <rdf:RDF>
      <cc:Work
         rdf:about="">
        <dc:format>image/svg+xml</dc:format>
        <dc:type
           rdf:resource="http://purl.org/dc/dcmitype/StillImage" />
        <dc:title></dc:title>
      </cc:Work>
    </rdf:RDF>
  </metadata>
  <g
     inkscape:label="Capa 1"
     inkscape:groupmode="layer"
     id="layer1"
     transform="translate(0,-290.64998)">
    <path
       id="path854"
       d="m 3.173235,292.50221 c -0.00568,0 -0.011967,0.0112 -0.016798,0.0327 -0.013391,0.0419 -0.031996,0.12332 -0.071233,0.23834 -0.031966,0.093 -0.073313,0.19725 -0.1344254,0.32534 -0.078095,0.16351 -0.1814644,0.35092 -0.3204929,0.55028 -0.1338291,-0.18923 -0.3043357,-0.38775 -0.5211417,-0.55599 -0.1107369,-0.0858 -0.2381229,-0.16463 -0.3819656,-0.22268 -0.1313324,-0.053 -0.2776135,-0.0861 -0.4309831,-0.0879 -0.1461253,-0.002 -0.29898512,0.0243 -0.44320058,0.0875 -0.12392985,0.0552 -0.23590196,0.13716 -0.3263882,0.24032 -0.0861552,0.0987 -0.15188006,0.21298 -0.19530165,0.33531 -0.0431092,0.12097 -0.0655999,0.24909 -0.0666998,0.37845 0,0.002 0,0.004 0,0.005 -7.705e-4,0.12733 0.0194001,0.25394 0.0602316,0.37401 0.04161,0.1228 0.10626118,0.23779 0.19208021,0.33682 0.0909083,0.10427 0.20389574,0.18626 0.32848767,0.241 0.14729529,0.0637 0.30284375,0.089 0.45083785,0.0872 0.146152,-0.002 0.2852368,-0.033 0.4102922,-0.0822 0.1392003,-0.0546 0.2633104,-0.12847 0.3721114,-0.20912 0.2287211,-0.16966 0.4085969,-0.37248 0.5493248,-0.56529 0.1472857,0.21713 0.2549362,0.41955 0.3348345,0.59031 0.058159,0.12445 0.097087,0.22197 0.1282919,0.30998 0.030893,0.0881 0.04078,0.1216 0.056126,0.17421 0.00409,0.0139 0.00745,0.0248 0.010646,0.0342 0.0045,0.0184 0.010225,0.0279 0.015417,0.0279 2.075e-4,0 3.924e-4,-1.8e-4 5.928e-4,-1.8e-4 1.938e-4,0 3.923e-4,1.8e-4 5.927e-4,1.8e-4 0.00457,0 0.00953,-0.008 0.013675,-0.0224 0.00373,-0.0102 0.00778,-0.023 0.012743,-0.0398 0.015624,-0.053 0.025309,-0.0856 0.056463,-0.1741 0.031338,-0.088 0.070362,-0.18536 0.1286261,-0.30976 0.079784,-0.17011 0.1871198,-0.37167 0.3337618,-0.58788 0.1405204,0.19242 0.3200274,0.39469 0.5482015,0.56402 0.1088857,0.0808 0.2331154,0.15477 0.3725162,0.20946 0.1252464,0.0491 0.2645955,0.0805 0.4110574,0.0823 0.1482454,0.002 0.3040927,-0.0234 0.4517453,-0.0873 0.1248931,-0.0548 0.2381437,-0.13702 0.329273,-0.24153 0.08602,-0.0993 0.1508197,-0.21446 0.1925106,-0.33751 0.040911,-0.12031 0.061093,-0.24719 0.060353,-0.37473 -1.08e-5,-0.002 0,-0.004 0,-0.005 -0.00107,-0.1296 -0.02365,-0.25796 -0.066842,-0.37914 -0.043506,-0.12259 -0.1093795,-0.23712 -0.1957332,-0.33599 -0.0907,-0.1034 -0.2029206,-0.18551 -0.3271504,-0.24086 -0.1445676,-0.0633 -0.2977191,-0.0895 -0.4441075,-0.0877 -0.15368,0.002 -0.3002385,0.0351 -0.4317709,0.0881 -0.1440524,0.0581 -0.2715731,0.13706 -0.382397,0.22303 -0.2162529,0.16791 -0.3863761,0.36587 -0.5199946,0.5547 -0.1383688,-0.19846 -0.2413968,-0.38502 -0.3193477,-0.54786 -0.061209,-0.12802 -0.1026444,-0.2321 -0.1347355,-0.32511 -0.041141,-0.12008 -0.059818,-0.20344 -0.073524,-0.24349 -0.00456,-0.0179 -0.010165,-0.0274 -0.015274,-0.0274 -1.938e-4,0 -3.924e-4,1.8e-4 -5.929e-4,1.8e-4 -1.936e-4,0 -3.922e-4,-1.8e-4 -5.927e-4,-1.8e-4 z m 1.706e-4,0.3458 c 0.017456,0.0888 0.044573,0.18936 0.085529,0.30477 0.070259,0.19826 0.1769278,0.43104 0.3357652,0.67864 -0.1655453,0.26663 -0.273593,0.51495 -0.3429241,0.7196 -0.037372,0.11013 -0.06226,0.20482 -0.078369,0.28778 -0.016206,-0.0829 -0.041135,-0.17741 -0.078561,-0.28738 -0.069556,-0.20474 -0.1778547,-0.45321 -0.3437582,-0.72 0.1591878,-0.24774 0.2660796,-0.48069 0.3365523,-0.67906 0.040993,-0.11523 0.068217,-0.2158 0.085767,-0.30435 z m -1.8772116,0.1988 c 0.1137048,-0.002 0.2280697,0.0219 0.3341441,0.0608 0.1173168,0.043 0.2270015,0.10691 0.3269602,0.17829 0.2180703,0.15564 0.3961359,0.35536 0.5393242,0.54312 -0.1499459,0.19039 -0.3371878,0.39399 -0.5663621,0.55055 -0.098147,0.0671 -0.2049396,0.12694 -0.3184172,0.16733 -0.101095,0.0359 -0.209037,0.0583 -0.3156492,0.0564 -0.1158763,-0.002 -0.2330189,-0.0221 -0.33492939,-0.0693 -0.0862571,-0.0391 -0.16549566,-0.0983 -0.22806783,-0.17157 -0.06026,-0.0699 -0.10649823,-0.15482 -0.13762371,-0.24653 -0.0304607,-0.0901 -0.0454212,-0.18727 -0.0450534,-0.28561 5.35e-6,-8.6e-4 0,-0.003 0,-0.005 0.001009,-0.1 0.0178825,-0.19858 0.0502339,-0.29022 0.0327307,-0.0922 0.0802712,-0.1774 0.141467,-0.24802 0.0631874,-0.0733 0.14199213,-0.13281 0.22782779,-0.17224 0.099475,-0.0468 0.21347774,-0.0673 0.32612494,-0.069 z m 3.7552786,0.003 c 0.112384,0.002 0.2260946,0.0223 0.3252175,0.0689 0.085536,0.0393 0.1640671,0.0986 0.2270412,0.17171 0.060999,0.0703 0.1083933,0.15536 0.1410372,0.24733 0.032268,0.0914 0.049114,0.18982 0.050115,0.28953 1.07e-5,8.5e-4 0,0.003 0,0.005 3.699e-4,0.0981 -0.014558,0.19496 -0.044935,0.28492 -0.031041,0.0914 -0.077135,0.17607 -0.1371945,0.24582 -0.062349,0.0731 -0.1413235,0.13198 -0.2272808,0.17102 -0.1015548,0.0472 -0.2183985,0.0672 -0.334023,0.0692 -0.1063003,0.002 -0.2140024,-0.0204 -0.3149081,-0.0562 -0.1132757,-0.0403 -0.2199251,-0.10008 -0.317987,-0.16703 -0.2286232,-0.15605 -0.4155798,-0.35906 -0.5654333,-0.54902 0.1430892,-0.18732 0.3208787,-0.38645 0.5383953,-0.54157 0.099873,-0.0713 0.2094211,-0.13505 0.3265299,-0.17793 0.1058771,-0.0388 0.2200109,-0.0625 0.3334032,-0.0606 z"
       style="fill:#f9f9f9;stroke:#ececec;stroke-width:0;stroke-linecap:round;stroke-linejoin:round;stroke-miterlimit:4;stroke-dasharray:none;stroke-opacity:1;filter:url(#filter892)"
       inkscape:connector-curvature="0" />
    <path
       inkscape:connector-curvature="0"
       style="fill:#f9f9f9;stroke:#ececec;stroke-width:0;stroke-linecap:round;stroke-linejoin:round;stroke-miterlimit:4;stroke-dasharray:none;stroke-opacity:1;filter:url(#filter914)"
       d="m 3.173235,292.50221 c -0.00568,0 -0.011967,0.0112 -0.016798,0.0327 -0.013391,0.0419 -0.031996,0.12332 -0.071233,0.23834 -0.031966,0.093 -0.073313,0.19725 -0.1344254,0.32534 -0.078095,0.16351 -0.1814644,0.35092 -0.3204929,0.55028 -0.1338291,-0.18923 -0.3043357,-0.38775 -0.5211417,-0.55599 -0.1107369,-0.0858 -0.2381229,-0.16463 -0.3819656,-0.22268 -0.1313324,-0.053 -0.2776135,-0.0861 -0.4309831,-0.0879 -0.1461253,-0.002 -0.29898512,0.0243 -0.44320058,0.0875 -0.12392985,0.0552 -0.23590196,0.13716 -0.3263882,0.24032 -0.0861552,0.0987 -0.15188006,0.21298 -0.19530165,0.33531 -0.0431092,0.12097 -0.0655999,0.24909 -0.0666998,0.37845 0,0.002 0,0.004 0,0.005 -7.705e-4,0.12733 0.0194001,0.25394 0.0602316,0.37401 0.04161,0.1228 0.10626118,0.23779 0.19208021,0.33682 0.0909083,0.10427 0.20389574,0.18626 0.32848767,0.241 0.14729529,0.0637 0.30284375,0.089 0.45083785,0.0872 0.146152,-0.002 0.2852368,-0.033 0.4102922,-0.0822 0.1392003,-0.0546 0.2633104,-0.12847 0.3721114,-0.20912 0.2287211,-0.16966 0.4085969,-0.37248 0.5493248,-0.56529 0.1472857,0.21713 0.2549362,0.41955 0.3348345,0.59031 0.058159,0.12445 0.097087,0.22197 0.1282919,0.30998 0.030893,0.0881 0.04078,0.1216 0.056126,0.17421 0.00409,0.0139 0.00745,0.0248 0.010646,0.0342 0.0045,0.0184 0.010225,0.0279 0.015417,0.0279 2.075e-4,0 3.924e-4,-1.8e-4 5.928e-4,-1.8e-4 1.938e-4,0 3.923e-4,1.8e-4 5.927e-4,1.8e-4 0.00457,0 0.00953,-0.008 0.013675,-0.0224 0.00373,-0.0102 0.00778,-0.023 0.012743,-0.0398 0.015624,-0.053 0.025309,-0.0856 0.056463,-0.1741 0.031338,-0.088 0.070362,-0.18536 0.1286261,-0.30976 0.079784,-0.17011 0.1871198,-0.37167 0.3337618,-0.58788 0.1405204,0.19242 0.3200274,0.39469 0.5482015,0.56402 0.1088857,0.0808 0.2331154,0.15477 0.3725162,0.20946 0.1252464,0.0491 0.2645955,0.0805 0.4110574,0.0823 0.1482454,0.002 0.3040927,-0.0234 0.4517453,-0.0873 0.1248931,-0.0548 0.2381437,-0.13702 0.329273,-0.24153 0.08602,-0.0993 0.1508197,-0.21446 0.1925106,-0.33751 0.040911,-0.12031 0.061093,-0.24719 0.060353,-0.37473 -1.08e-5,-0.002 0,-0.004 0,-0.005 -0.00107,-0.1296 -0.02365,-0.25796 -0.066842,-0.37914 -0.043506,-0.12259 -0.1093795,-0.23712 -0.1957332,-0.33599 -0.0907,-0.1034 -0.2029206,-0.18551 -0.3271504,-0.24086 -0.1445676,-0.0633 -0.2977191,-0.0895 -0.4441075,-0.0877 -0.15368,0.002 -0.3002385,0.0351 -0.4317709,0.0881 -0.1440524,0.0581 -0.2715731,0.13706 -0.382397,0.22303 -0.2162529,0.16791 -0.3863761,0.36587 -0.5199946,0.5547 -0.1383688,-0.19846 -0.2413968,-0.38502 -0.3193477,-0.54786 -0.061209,-0.12802 -0.1026444,-0.2321 -0.1347355,-0.32511 -0.041141,-0.12008 -0.059818,-0.20344 -0.073524,-0.24349 -0.00456,-0.0179 -0.010165,-0.0274 -0.015274,-0.0274 -1.938e-4,0 -3.924e-4,1.8e-4 -5.929e-4,1.8e-4 -1.936e-4,0 -3.922e-4,-1.8e-4 -5.927e-4,-1.8e-4 z m 1.706e-4,0.3458 c 0.017456,0.0888 0.044573,0.18936 0.085529,0.30477 0.070259,0.19826 0.1769278,0.43104 0.3357652,0.67864 -0.1655453,0.26663 -0.273593,0.51495 -0.3429241,0.7196 -0.037372,0.11013 -0.06226,0.20482 -0.078369,0.28778 -0.016206,-0.0829 -0.041135,-0.17741 -0.078561,-0.28738 -0.069556,-0.20474 -0.1778547,-0.45321 -0.3437582,-0.72 0.1591878,-0.24774 0.2660796,-0.48069 0.3365523,-0.67906 0.040993,-0.11523 0.068217,-0.2158 0.085767,-0.30435 z m -1.8772116,0.1988 c 0.1137048,-0.002 0.2280697,0.0219 0.3341441,0.0608 0.1173168,0.043 0.2270015,0.10691 0.3269602,0.17829 0.2180703,0.15564 0.3961359,0.35536 0.5393242,0.54312 -0.1499459,0.19039 -0.3371878,0.39399 -0.5663621,0.55055 -0.098147,0.0671 -0.2049396,0.12694 -0.3184172,0.16733 -0.101095,0.0359 -0.209037,0.0583 -0.3156492,0.0564 -0.1158763,-0.002 -0.2330189,-0.0221 -0.33492939,-0.0693 -0.0862571,-0.0391 -0.16549566,-0.0983 -0.22806783,-0.17157 -0.06026,-0.0699 -0.10649823,-0.15482 -0.13762371,-0.24653 -0.0304607,-0.0901 -0.0454212,-0.18727 -0.0450534,-0.28561 5.35e-6,-8.6e-4 0,-0.003 0,-0.005 0.001009,-0.1 0.0178825,-0.19858 0.0502339,-0.29022 0.0327307,-0.0922 0.0802712,-0.1774 0.141467,-0.24802 0.0631874,-0.0733 0.14199213,-0.13281 0.22782779,-0.17224 0.099475,-0.0468 0.21347774,-0.0673 0.32612494,-0.069 z m 3.7552786,0.003 c 0.112384,0.002 0.2260946,0.0223 0.3252175,0.0689 0.085536,0.0393 0.1640671,0.0986 0.2270412,0.17171 0.060999,0.0703 0.1083933,0.15536 0.1410372,0.24733 0.032268,0.0914 0.049114,0.18982 0.050115,0.28953 1.07e-5,8.5e-4 0,0.003 0,0.005 3.699e-4,0.0981 -0.014558,0.19496 -0.044935,0.28492 -0.031041,0.0914 -0.077135,0.17607 -0.1371945,0.24582 -0.062349,0.0731 -0.1413235,0.13198 -0.2272808,0.17102 -0.1015548,0.0472 -0.2183985,0.0672 -0.334023,0.0692 -0.1063003,0.002 -0.2140024,-0.0204 -0.3149081,-0.0562 -0.1132757,-0.0403 -0.2199251,-0.10008 -0.317987,-0.16703 -0.2286232,-0.15605 -0.4155798,-0.35906 -0.5654333,-0.54902 0.1430892,-0.18732 0.3208787,-0.38645 0.5383953,-0.54157 0.099873,-0.0713 0.2094211,-0.13505 0.3265299,-0.17793 0.1058771,-0.0388 0.2200109,-0.0625 0.3334032,-0.0606 z"
       id="path896" />
    <path
       inkscape:connector-curvature="0"
       style="fill:#b3a885;stroke:#ececec;stroke-width:0;stroke-linecap:round;stroke-linejoin:round;stroke-miterlimit:4;stroke-dasharray:none;stroke-opacity:1;fill-opacity:1"
       d="m 3.173235,292.50221 c -0.00568,0 -0.011967,0.0112 -0.016798,0.0327 -0.013391,0.0419 -0.031996,0.12332 -0.071233,0.23834 -0.031966,0.093 -0.073313,0.19725 -0.1344254,0.32534 -0.078095,0.16351 -0.1814644,0.35092 -0.3204929,0.55028 -0.1338291,-0.18923 -0.3043357,-0.38775 -0.5211417,-0.55599 -0.1107369,-0.0858 -0.2381229,-0.16463 -0.3819656,-0.22268 -0.1313324,-0.053 -0.2776135,-0.0861 -0.4309831,-0.0879 -0.1461253,-0.002 -0.29898512,0.0243 -0.44320058,0.0875 -0.12392985,0.0552 -0.23590196,0.13716 -0.3263882,0.24032 -0.0861552,0.0987 -0.15188006,0.21298 -0.19530165,0.33531 -0.0431092,0.12097 -0.0655999,0.24909 -0.0666998,0.37845 0,0.002 0,0.004 0,0.005 -7.705e-4,0.12733 0.0194001,0.25394 0.0602316,0.37401 0.04161,0.1228 0.10626118,0.23779 0.19208021,0.33682 0.0909083,0.10427 0.20389574,0.18626 0.32848767,0.241 0.14729529,0.0637 0.30284375,0.089 0.45083785,0.0872 0.146152,-0.002 0.2852368,-0.033 0.4102922,-0.0822 0.1392003,-0.0546 0.2633104,-0.12847 0.3721114,-0.20912 0.2287211,-0.16966 0.4085969,-0.37248 0.5493248,-0.56529 0.1472857,0.21713 0.2549362,0.41955 0.3348345,0.59031 0.058159,0.12445 0.097087,0.22197 0.1282919,0.30998 0.030893,0.0881 0.04078,0.1216 0.056126,0.17421 0.00409,0.0139 0.00745,0.0248 0.010646,0.0342 0.0045,0.0184 0.010225,0.0279 0.015417,0.0279 2.075e-4,0 3.924e-4,-1.8e-4 5.928e-4,-1.8e-4 1.938e-4,0 3.923e-4,1.8e-4 5.927e-4,1.8e-4 0.00457,0 0.00953,-0.008 0.013675,-0.0224 0.00373,-0.0102 0.00778,-0.023 0.012743,-0.0398 0.015624,-0.053 0.025309,-0.0856 0.056463,-0.1741 0.031338,-0.088 0.070362,-0.18536 0.1286261,-0.30976 0.079784,-0.17011 0.1871198,-0.37167 0.3337618,-0.58788 0.1405204,0.19242 0.3200274,0.39469 0.5482015,0.56402 0.1088857,0.0808 0.2331154,0.15477 0.3725162,0.20946 0.1252464,0.0491 0.2645955,0.0805 0.4110574,0.0823 0.1482454,0.002 0.3040927,-0.0234 0.4517453,-0.0873 0.1248931,-0.0548 0.2381437,-0.13702 0.329273,-0.24153 0.08602,-0.0993 0.1508197,-0.21446 0.1925106,-0.33751 0.040911,-0.12031 0.061093,-0.24719 0.060353,-0.37473 -1.08e-5,-0.002 0,-0.004 0,-0.005 -0.00107,-0.1296 -0.02365,-0.25796 -0.066842,-0.37914 -0.043506,-0.12259 -0.1093795,-0.23712 -0.1957332,-0.33599 -0.0907,-0.1034 -0.2029206,-0.18551 -0.3271504,-0.24086 -0.1445676,-0.0633 -0.2977191,-0.0895 -0.4441075,-0.0877 -0.15368,0.002 -0.3002385,0.0351 -0.4317709,0.0881 -0.1440524,0.0581 -0.2715731,0.13706 -0.382397,0.22303 -0.2162529,0.16791 -0.3863761,0.36587 -0.5199946,0.5547 -0.1383688,-0.19846 -0.2413968,-0.38502 -0.3193477,-0.54786 -0.061209,-0.12802 -0.1026444,-0.2321 -0.1347355,-0.32511 -0.041141,-0.12008 -0.059818,-0.20344 -0.073524,-0.24349 -0.00456,-0.0179 -0.010165,-0.0274 -0.015274,-0.0274 -1.938e-4,0 -3.924e-4,1.8e-4 -5.929e-4,1.8e-4 -1.936e-4,0 -3.922e-4,-1.8e-4 -5.927e-4,-1.8e-4 z m 1.706e-4,0.3458 c 0.017456,0.0888 0.044573,0.18936 0.085529,0.30477 0.070259,0.19826 0.1769278,0.43104 0.3357652,0.67864 -0.1655453,0.26663 -0.273593,0.51495 -0.3429241,0.7196 -0.037372,0.11013 -0.06226,0.20482 -0.078369,0.28778 -0.016206,-0.0829 -0.041135,-0.17741 -0.078561,-0.28738 -0.069556,-0.20474 -0.1778547,-0.45321 -0.3437582,-0.72 0.1591878,-0.24774 0.2660796,-0.48069 0.3365523,-0.67906 0.040993,-0.11523 0.068217,-0.2158 0.085767,-0.30435 z m -1.8772116,0.1988 c 0.1137048,-0.002 0.2280697,0.0219 0.3341441,0.0608 0.1173168,0.043 0.2270015,0.10691 0.3269602,0.17829 0.2180703,0.15564 0.3961359,0.35536 0.5393242,0.54312 -0.1499459,0.19039 -0.3371878,0.39399 -0.5663621,0.55055 -0.098147,0.0671 -0.2049396,0.12694 -0.3184172,0.16733 -0.101095,0.0359 -0.209037,0.0583 -0.3156492,0.0564 -0.1158763,-0.002 -0.2330189,-0.0221 -0.33492939,-0.0693 -0.0862571,-0.0391 -0.16549566,-0.0983 -0.22806783,-0.17157 -0.06026,-0.0699 -0.10649823,-0.15482 -0.13762371,-0.24653 -0.0304607,-0.0901 -0.0454212,-0.18727 -0.0450534,-0.28561 5.35e-6,-8.6e-4 0,-0.003 0,-0.005 0.001009,-0.1 0.0178825,-0.19858 0.0502339,-0.29022 0.0327307,-0.0922 0.0802712,-0.1774 0.141467,-0.24802 0.0631874,-0.0733 0.14199213,-0.13281 0.22782779,-0.17224 0.099475,-0.0468 0.21347774,-0.0673 0.32612494,-0.069 z m 3.7552786,0.003 c 0.112384,0.002 0.2260946,0.0223 0.3252175,0.0689 0.085536,0.0393 0.1640671,0.0986 0.2270412,0.17171 0.060999,0.0703 0.1083933,0.15536 0.1410372,0.24733 0.032268,0.0914 0.049114,0.18982 0.050115,0.28953 1.07e-5,8.5e-4 0,0.003 0,0.005 3.699e-4,0.0981 -0.014558,0.19496 -0.044935,0.28492 -0.031041,0.0914 -0.077135,0.17607 -0.1371945,0.24582 -0.062349,0.0731 -0.1413235,0.13198 -0.2272808,0.17102 -0.1015548,0.0472 -0.2183985,0.0672 -0.334023,0.0692 -0.1063003,0.002 -0.2140024,-0.0204 -0.3149081,-0.0562 -0.1132757,-0.0403 -0.2199251,-0.10008 -0.317987,-0.16703 -0.2286232,-0.15605 -0.4155798,-0.35906 -0.5654333,-0.54902 0.1430892,-0.18732 0.3208787,-0.38645 0.5383953,-0.54157 0.099873,-0.0713 0.2094211,-0.13505 0.3265299,-0.17793 0.1058771,-0.0388 0.2200109,-0.0625 0.3334032,-0.0606 z"
       id="path4737" />
  </g>
</svg>
