<?xml version="1.0" encoding="UTF-8" standalone="no"?>
<!-- Created with Inkscape (http://www.inkscape.org/) -->

<svg
   xmlns:dc="http://purl.org/dc/elements/1.1/"
   xmlns:cc="http://creativecommons.org/ns#"
   xmlns:rdf="http://www.w3.org/1999/02/22-rdf-syntax-ns#"
   xmlns:svg="http://www.w3.org/2000/svg"
   xmlns="http://www.w3.org/2000/svg"
   xmlns:sodipodi="http://sodipodi.sourceforge.net/DTD/sodipodi-0.dtd"
   xmlns:inkscape="http://www.inkscape.org/namespaces/inkscape"
   width="17.008253mm"
   height="7.9375095mm"
   viewBox="0 0 17.008253 7.9375095"
   version="1.1"
   id="svg7071"
   inkscape:version="0.92pre2 r15141 custom"
   sodipodi:docname="logo.svg"
   inkscape:export-filename="./logo.png"
   inkscape:export-xdpi="95.999886"
   inkscape:export-ydpi="95.999886">
  <defs
     id="defs7065" />
  <sodipodi:namedview
     id="base"
     pagecolor="#ffffff"
     bordercolor="#666666"
     borderopacity="1.0"
     inkscape:pageopacity="0.0"
     inkscape:pageshadow="2"
     inkscape:zoom="7.9195959"
     inkscape:cx="32.818625"
     inkscape:cy="11.831254"
     inkscape:document-units="mm"
     inkscape:current-layer="layer1"
     showgrid="false"
     fit-margin-top="0"
     fit-margin-left="0"
     fit-margin-right="0"
     fit-margin-bottom="0"
     inkscape:window-width="1920"
     inkscape:window-height="1015"
     inkscape:window-x="0"
     inkscape:window-y="0"
     inkscape:window-maximized="1" />
  <metadata
     id="metadata7068">
    <rdf:RDF>
      <cc:Work
         rdf:about="">
        <dc:format>image/svg+xml</dc:format>
        <dc:type
           rdf:resource="http://purl.org/dc/dcmitype/StillImage" />
        <dc:title></dc:title>
      </cc:Work>
    </rdf:RDF>
  </metadata>
  <g
     inkscape:label="Capa 1"
     inkscape:groupmode="layer"
     id="layer1"
     transform="translate(-99.673234,-1.4297179)">
    <path
       inkscape:connector-curvature="0"
       style="fill:#d0c39a;fill-opacity:1;stroke:none;stroke-width:0.03570049px;stroke-linecap:butt;stroke-linejoin:miter;stroke-opacity:1"
       d="m 108.17197,1.4297219 c -0.0166,0 -0.035,0.03364 -0.0491,0.0981 -0.0391,0.125936 -0.0935,0.370025 -0.20814,0.715057 -0.0934,0.279161 -0.21421,0.591771 -0.39277,0.976042 -0.22819,0.490542 -0.53022,1.052782 -0.93644,1.65087 -0.39103,-0.567735 -0.88923,-1.163303 -1.52271,-1.668015 -0.32356,-0.257576 -0.69577,-0.493889 -1.11606,-0.668062 -0.38374,-0.158887 -0.81115,-0.258365 -1.25928,-0.263707 -0.42696,-0.0054 -0.8736,0.07273 -1.29498,0.262382 -0.36211,0.165673 -0.68928,0.411495 -0.95366,0.720982 -0.25174,0.295978 -0.443776,0.638946 -0.570649,1.005958 -0.125959,0.362912 -0.191674,0.747258 -0.194888,1.135375 0,0.0051 0,0.01024 0,0.01534 -0.0022,0.381993 0.05669,0.761846 0.175989,1.122054 0.121576,0.3684444 0.310478,0.7134044 0.561238,1.0104934 0.26562,0.312786 0.59575,0.558797 0.95979,0.723005 0.43038,0.190935 0.88488,0.267191 1.3173,0.261407 0.42703,-0.0053 0.83342,-0.09913 1.19882,-0.246415 0.40673,-0.163746 0.76936,-0.385429 1.08726,-0.627407 0.6683,-0.508946 1.19387,-1.1173864 1.60506,-1.6958444 0.43035,0.651386 0.7449,1.2586644 0.97835,1.7709384 0.16993,0.373357 0.28368,0.665926 0.37485,0.929957 0.0903,0.264355 0.11916,0.364842 0.164,0.522674 0.0119,0.04182 0.0218,0.0745 0.0311,0.102711 0.0131,0.05544 0.0299,0.08361 0.045,0.08361 6.1e-4,0 0.001,-4.99e-4 0.002,-5.67e-4 5.7e-4,0 0.001,5.67e-4 0.002,5.67e-4 0.0133,0 0.0278,-0.02279 0.04,-0.0668 0.011,-0.03048 0.0228,-0.06896 0.0372,-0.119371 0.0456,-0.158933 0.0739,-0.256944 0.16498,-0.522331 0.0916,-0.263914 0.20558,-0.556079 0.37582,-0.92926 0.23313,-0.510359 0.54675,-1.1150674 0.97522,-1.7636854 0.41058,0.577278 0.93508,1.1840654 1.60177,1.6920744 0.31815,0.242303 0.68114,0.464308 1.08845,0.628386 0.36595,0.147593 0.77312,0.241579 1.20106,0.246975 0.43316,0.0059 0.88852,-0.07051 1.31994,-0.261826 0.36493,-0.164577 0.69583,-0.411091 0.9621,-0.724608 0.25134,-0.297774 0.44068,-0.643409 0.56249,-1.0125844 0.11954,-0.360916 0.17851,-0.741542 0.17635,-1.124217 -4e-5,-0.0051 0,-0.01023 0,-0.01534 -0.003,-0.388809 -0.0691,-0.773864 -0.19531,-1.137465 -0.12712,-0.367721 -0.31959,-0.711348 -0.57191,-1.00798 -0.26501,-0.310192 -0.59291,-0.556543 -0.95589,-0.722585 -0.42241,-0.190041 -0.8699,-0.268339 -1.29763,-0.262805 -0.44903,0.0054 -0.87726,0.105048 -1.26158,0.264267 -0.4209,0.174527 -0.7935,0.411186 -1.11732,0.669105 -0.63185,0.503713 -1.12893,1.097624 -1.51935,1.664114 -0.4043,-0.595385 -0.70533,-1.155062 -0.9331,-1.64362 -0.17884,-0.384053 -0.29991,-0.696344 -0.39368,-0.975349 -0.12021,-0.360226 -0.17478,-0.610335 -0.21483,-0.730464 -0.0133,-0.05395 -0.0297,-0.08214 -0.0446,-0.08214 -5.7e-4,0 -0.001,5.4e-4 -0.002,6.07e-4 -5.7e-4,0 -10e-4,-6.07e-4 -0.002,-6.07e-4 z m 5e-4,1.037473 c 0.051,0.265966 0.13025,0.56807 0.24991,0.914268 0.20529,0.594818 0.51696,1.29318 0.98106,2.035975 -0.4837,0.799916 -0.7994,1.5449154 -1.00198,2.1588304 -0.1092,0.330402 -0.18191,0.614472 -0.22899,0.86337 -0.0473,-0.248586 -0.12019,-0.53224 -0.22954,-0.862181 -0.20323,-0.614217 -0.51967,-1.3596584 -1.00442,-2.1600194 0.46513,-0.743244 0.77745,-1.44209 0.98336,-2.037232 0.11979,-0.345702 0.19933,-0.647384 0.2506,-0.913011 z m -5.48498,0.596379 c 0.33223,-0.0053 0.66639,0.06564 0.97633,0.182338 0.34279,0.128986 0.66327,0.320729 0.95534,0.534878 0.63717,0.466902 1.15746,1.066107 1.57584,1.629393 -0.43813,0.571163 -0.98523,1.181959 -1.65484,1.6516364 -0.28678,0.201195 -0.59881,0.380878 -0.93038,0.502039 -0.29539,0.107715 -0.61078,0.174744 -0.92229,0.169435 -0.33858,-0.0058 -0.68085,-0.06606 -0.97862,-0.208136 -0.25203,-0.117543 -0.48356,-0.294854 -0.66639,-0.514727 -0.17607,-0.209888 -0.31117,-0.4644494 -0.40212,-0.7396004 -0.089,-0.2706 -0.1327,-0.561851 -0.13164,-0.856812 1e-5,-0.0039 0,-0.0079 0,-0.01185 0.003,-0.299788 0.0523,-0.595708 0.14677,-0.870615 0.0956,-0.276625 0.23454,-0.53224 0.41335,-0.744063 0.18462,-0.220102 0.41488,-0.398471 0.66568,-0.516753 0.29066,-0.140212 0.62376,-0.201712 0.9529,-0.207158 z m 10.97247,0.0062 c 0.32837,0.0055 0.66062,0.06692 0.95024,0.206743 0.24993,0.117905 0.47939,0.295749 0.66339,0.515146 0.17823,0.211168 0.31671,0.46606 0.41209,0.741972 0.0943,0.274218 0.1435,0.569502 0.14643,0.868597 3e-5,0.0039 0,0.0078 0,0.01178 0.001,0.294278 -0.0425,0.584894 -0.1313,0.854789 -0.0907,0.274423 -0.22538,0.5282344 -0.40086,0.7374414 -0.18218,0.219142 -0.41293,0.395946 -0.66409,0.51312 -0.29673,0.14169 -0.63813,0.201785 -0.97597,0.207649 -0.3106,0.0054 -0.62529,-0.06133 -0.92013,-0.168738 -0.33097,-0.12082 -0.64259,-0.300248 -0.92912,-0.501127 -0.668,-0.4681964 -1.21427,-1.0771954 -1.65212,-1.6471044 0.41809,-0.561981 0.93757,-1.159354 1.57312,-1.624717 0.29182,-0.213811 0.61191,-0.405135 0.95408,-0.533767 0.30936,-0.116366 0.64285,-0.187208 0.97417,-0.181781 z"
       id="path4737" />
  </g>
</svg>
